
<svg xmlns="http://www.w3.org/2000/svg" viewBox="0 0 24 24"><path fill="#00C4CC" d="M12 0C5.373 0 0 5.373 0 12s5.373 12 12 12 12-5.373 12-12S18.627 0 12 0zM8.951 17.535c-.846 0-1.621-.36-2.086-.947-.46-.587-.691-1.357-.691-2.309 0-1.042.324-2.042.971-2.999.648-.956 1.434-1.434 2.359-1.434.572 0 1.041.175 1.408.525.366.35.549.819.549 1.408 0 .984-.474 1.755-1.423 2.309.474.278.971.418 1.489.418.474 0 .88-.124 1.219-.371.339-.247.509-.602.509-1.066 0-.587-.232-1.143-.695-1.667-.463-.525-.971-.788-1.526-.788-.309 0-.557.093-.742.278-.186.186-.278.412-.278.68 0 .432.139.772.418 1.02.278.247.618.371 1.02.371h.34v.927h-.34c-.803 0-1.477-.268-2.024-.803-.546-.535-.819-1.24-.819-2.117 0-.725.273-1.328.819-1.805.546-.478 1.251-.716 2.117-.716 1.164 0 2.086.407 2.766 1.219.68.813 1.02 1.755 1.02 2.826 0 1.102-.412 1.976-1.235 2.619-.824.644-1.75.965-2.78.965-.184 0-.376-.015-.572-.046-.197-.031-.39-.077-.582-.139zm6.514-.866c-.835 0-1.545-.34-2.132-1.02-.587-.68-.881-1.58-.881-2.702 0-1.143.366-2.117 1.097-2.919.732-.803 1.61-1.204 2.632-1.204.762 0 1.367.216 1.821.649.453.432.68 1.02.68 1.76 0 .886-.335 1.673-1.004 2.363.381.247.747.371 1.097.371.288 0 .515-.113.68-.34.165-.227.247-.536.247-.927 0-.381-.17-.886-.51-1.515-.34-.629-.572-1.112-.695-1.452l.833-.464c.071.154.165.381.278.68.114.299.232.572.356.819.124.247.222.494.294.742.072.247.108.484.108.711 0 .721-.253 1.306-.757 1.76-.505.453-1.164.68-1.976.68-.721 0-1.331-.206-1.83-.618v.03c0 .689.17 1.271.51 1.745.34.474.792.711 1.357.711.226 0 .484-.057.773-.17.288-.113.494-.227.618-.34l.463.772c-.217.205-.515.381-.895.526s-.778.217-1.189.217l.043.015z"/></svg>
