
<svg xmlns="http://www.w3.org/2000/svg" viewBox="0 0 598.88 1333.33"><path d="M295.27 3.65l35.58 66.83c8 12.33 16.67 23.25 24.83 35.58 26.42 39.17 49.25 80.75 67.83 124.92 27.25 64.25 43.92 131.67 49.67 201.33 8.58 99-9.67 193.25-52.33 281.75-12.67 26.42-27.82 51.25-46.08 74.08-14 17.5-29.17 33.75-45.92 48.25-9.25 8-18.92 15.67-29.17 22.58-.58.42-1.17 1.25-1.75 1.25h-1.17c-.58 0-1.17-.83-1.75-1.25-10.25-6.92-19.92-14.58-29.17-22.58-16.75-14.5-31.92-30.75-45.92-48.25-18.25-22.83-33.42-47.67-46.08-74.08-42.67-88.5-60.92-182.75-52.33-281.75 5.75-69.67 22.42-137.08 49.67-201.33 18.58-44.17 41.42-85.75 67.83-124.92 8.17-12.33 16.83-23.25 24.83-35.58L295.27 3.65z" fill="#599636"/><path d="M296.44 1318.08c4.08-112.42 7-224.83 11.08-337.83v-22c0-2.33-.58-3.5-2.92-4.08-12.33-2.92-24.67-5.83-36.42-10.25-60.92-22.42-103.25-64.25-123.08-125.17-22.42-68.08-21-136.75-3.5-205.42.58-2.33 1.75-4.67 2.33-7 .58-2.33 1.75-3.5 4.67-2.33 1.17.58 2.33 0 3.5-.58 10.25-9.25 19.92-19.92 31.33-27.83 2.92-2.33 2.92-4.08 1.75-7-18.67-47.25-11.67-92.17 14-135.17 4.67-7.58 9.33-15.17 15.17-21.58 2.33-2.33 2.92-4.08 1.75-7-18.67-47.25-11.67-92.17 14-135.17 1.17-1.75 2.33-3.5 3.5-5.25 1.75-2.33 1.75-4.08 0-6.42-26.42-36.42-45.08-76.42-54.25-120.33-.58-3.5 0-4.67 3.5-4.67h1.17c13.42 3.5 26.83 5.83 39.67 11.08 26.42 10.25 51.25 23.25 73.5 41.42 2.92 2.33 5.25 2.92 8.75 1.75 42.67-15.17 86.17-20.42 131.08-14.58 20.42 2.92 40.25 7.58 59.5 14.58 3.5 1.17 5.83.58 8.75-1.75 22.25-18.17 47.08-31.17 73.5-41.42 12.83-5.25 26.25-7.58 39.67-11.08h1.17c4.08 0 4.67 1.17 3.5 4.67-9.17 44.5-27.83 84.5-54.25 120.33-1.75 2.33-2.33 4.08 0 6.42 1.17 1.75 2.33 3.5 3.5 5.25 25.67 43 32.67 87.92 14 135.17-.58 2.92-.58 4.67 1.75 7 5.83 6.42 10.5 14 15.17 21.58 25.67 43 32.67 87.92 14 135.17-1.17 2.92-1.17 4.67 1.75 7 11.42 7.92 21.08 18.58 31.33 27.83 1.17.58 2.33 1.17 3.5.58 2.92-1.17 4.08 0 4.67 2.33.58 2.33 1.75 4.67 2.33 7 17.5 68.67 19.92 137.33-3.5 205.42-19.83 60.92-62.17 102.75-123.08 125.17-11.75 4.42-24.08 7.33-36.42 10.25-2.33.58-2.92 1.75-2.92 4.08v22c4.08 113 7 225.42 11.08 337.83v1.17H296.44v-1.17z" fill="#fff"/><path d="M296.44 1333.33c5.25-113.58 9.25-227.17 12.83-340.75.58-14 1.17-27.42 1.75-41.42 0-2.92 1.17-4.08 3.5-5.25 15.17-4.67 30.33-9.33 44.92-15.75 23.25-10.25 44.33-24.08 61-43.33 25.67-29.75 41.42-64.25 48.25-102.75 7-37.33 8.17-75.25 5.83-112.58-2.33-36.42-8.17-72.25-19.33-107.33-.58-2.33-1.75-4.67-2.33-7-.58-1.75.58-2.92 1.75-4.08s2.92-1.75 3.5-3.5c1.17-2.92 2.92-5.25 4.67-7.58 11.42-15.75 22.83-31.33 29.75-49.67 8.17-21 11.08-42.67 8.75-64.83-2.33-20.42-8.75-39.67-19.33-57.17-1.75-2.92-3.5-5.83-5.25-8.17-1.17-1.75-1.17-2.92 0-4.67 15.17-21 25.67-44.33 30.92-69.5 5.83-28.58 3.5-56.58-5.83-84-7-20.42-17.5-39.08-31.92-55.42-1.75-1.75-2.33-3.5-1.75-5.83 11.42-35 10.25-69.5-1.17-104.42-11.08-33.17-30.33-61-56.75-84.25-1.75-1.75-2.33-2.92-1.17-5.25 11.42-22.25 18.67-45.5 22.25-69.5 4.67-29.75 4.08-59.5-2.33-89.25-.58-2.33-1.17-4.67-1.75-7-1.17-3.5-2.33-4.08-5.83-2.33-19.92 9.33-39.08 19.92-56.58 33.17-17.5 12.83-33.75 27.25-47.67 44.33-1.75 1.75-2.92 2.33-5.25 1.75-31.33-9.33-63.33-13.42-96.25-12.25-31.33 1.17-61.58 7-91.33 17.5-2.33.58-3.5.58-5.25-1.75-13.42-16.75-29.17-30.92-46.5-43.33-18.08-13.42-37.33-24.67-57.75-34.33-2.92-1.17-4.67-.58-5.25 2.33-.58 2.33-1.17 4.67-1.75 7-6.42 29.75-7 59.5-2.33 89.25 3.5 24 10.83 47.25 22.25 69.5 1.17 2.33.58 3.5-1.17 5.25-26.42 23.25-45.67 51.08-56.75 84.25-11.42 34.92-12.58 69.42-1.17 104.42.58 2.33 0 4.08-1.75 5.83-14.42 16.33-24.92 35-31.92 55.42-9.33 27.42-11.67 55.42-5.83 84 5.25 25.08 15.75 48.25 30.92 69.5 1.17 1.75 1.75 2.92 0 4.67-2.33 2.92-3.5 5.83-5.25 8.17-10.83 17.5-17.5 36.75-19.33 57.17-2.33 22.17.58 43.83 8.75 64.83 6.92 18.33 18.33 33.92 29.75 49.67 1.75 2.33 3.5 4.67 4.67 7.58.58 1.75 2.33 2.33 3.5 3.5 1.17 1.17 2.92 2.33 1.75 4.08-.58 2.33-1.75 4.67-2.33 7-11.08 35.08-17.5 70.92-19.33 107.33-2.33 37.33-1.17 75.25 5.83 112.58 6.42 37.92 22.17 72.42 48.25 102.75 16.67 19.25 37.75 33.08 61 43.33 14.58 6.42 29.75 11.08 44.92 15.75 2.33.58 3.5 2.33 3.5 5.25.58 14 1.17 27.42 1.75 41.42 3.5 113.58 7.58 227.17 12.83 340.75h-1.17c-49.67-24.67-90.17-60.33-120.92-106.42-58.33-86.17-81.58-181.58-76.42-285.25 3.5-68.67 19.92-134.42 47.08-196.67 12.25-28 26.42-55.42 42.67-81.58.58-1.17 1.75-2.33 1.17-4.08-25.67-42.67-32.67-87.92-13.42-134.42 5.25-12.83 12.25-24.67 20.42-36.42-19.33-42.67-23.83-86.17-8.17-130.5 10.83-31.33 29.17-57.75 52.33-81.58-8.75-47.25-5.83-93.33 15.17-137.08 18.67-38.5 47.25-67.67 82.33-90.75-5.83-42.67-2.33-84.58 12.25-125.17 15.75-43.92 40.83-81.58 75.25-113 57.17-51.83 124.25-81.58 200.08-88.5 71.42-6.42 140.08 5.25 204.92 37.33 59.5 29.75 106 72.83 137.92 130 15.17 27.25 25.67 56.58 31.33 87.33 3.5 19.92 5.25 39.67 4.08 59.5-1.17 20.42-4.08 40.83-10.83 60.33 35.08 23.08 63.67 52.25 82.33 90.75 21 43.75 24.08 89.83 15.17 137.08 23.25 23.83 41.42 50.25 52.33 81.58 15.67 44.33 11.17 87.83-8.17 130.5 8.17 11.75 15.17 23.58 20.42 36.42 19.25 46.5 12.25 91.75-13.42 134.42-.58 1.17.58 2.92 1.17 4.08 16.25 26.17 30.42 53.58 42.67 81.58 27.25 62.17 43.58 128 47.08 196.67 5.25 103.67-18.08 199.08-76.42 285.25-30.75 46.08-71.25 81.75-120.92 106.42h-1.17z" fill="#6cac48"/></svg>
